<?xml version="1.0" encoding="utf-8"?>
<!-- Generator: Adobe Illustrator 21.0.2, SVG Export Plug-In . SVG Version: 6.00 Build 0)  -->
<svg version="1.1" id="レイヤー_1" xmlns="http://www.w3.org/2000/svg" xmlns:xlink="http://www.w3.org/1999/xlink" x="0px"
	 y="0px" viewBox="0 0 28 28" style="enable-background:new 0 0 28 28;" xml:space="preserve">
<style type="text/css">
	.st0{fill:#303030;}
	.st1{fill:none;}
</style>
<polygon class="st0" points="23.7,9.4 22,10.9 23.7,12.8 4.5,12.8 6.2,10.9 4.5,9.4 0.3,14 4.5,18.7 6.2,17.2 4.5,15.3 23.7,15.3 
	22,17.2 23.7,18.7 27.9,14 "/>
<polygon class="st0" points="12.8,4.4 12.8,11.3 15.3,11.3 15.3,4.4 17.2,6.2 18.7,4.4 14.1,0.2 9.4,4.4 10.9,6.2 "/>
<polygon class="st0" points="15.3,23.6 15.3,16.7 12.8,16.7 12.8,23.6 10.9,21.9 9.4,23.6 14.1,27.8 18.7,23.6 17.2,21.9 "/>
<rect class="st1" width="28" height="28"/>
</svg>
