<?xml version="1.0" encoding="utf-8"?>
<!-- Generator: Adobe Illustrator 21.0.2, SVG Export Plug-In . SVG Version: 6.00 Build 0)  -->
<svg version="1.1" id="レイヤー_1" xmlns="http://www.w3.org/2000/svg" xmlns:xlink="http://www.w3.org/1999/xlink" x="0px"
	 y="0px" viewBox="0 0 28 28" style="enable-background:new 0 0 28 28;" xml:space="preserve">
<style type="text/css">
	.st0{fill:#303030;}
</style>
<g>
	<polygon class="st0" points="24.7,20 24.7,23.1 19.6,18 17.9,19.6 23.1,24.8 19.7,24.8 19.7,27.1 27,27.1 27,20 	"/>
</g>
<g>
	<polygon class="st0" points="3,20 3,23.1 8.2,18 9.8,19.6 4.6,24.8 8.1,24.8 8.1,27.1 0.7,27.1 0.7,20 	"/>
</g>
<g>
	<polygon class="st0" points="24.7,8 24.7,4.9 19.6,10 17.9,8.4 23.1,3.2 19.7,3.2 19.7,0.9 27,0.9 27,8 	"/>
</g>
<g>
	<polygon class="st0" points="3,8 3,4.9 8.2,10 9.8,8.4 4.6,3.2 8.1,3.2 8.1,0.9 0.7,0.9 0.7,8 	"/>
</g>
</svg>
