<?xml version="1.0" encoding="utf-8"?>
<!-- Generator: Adobe Illustrator 21.0.2, SVG Export Plug-In . SVG Version: 6.00 Build 0)  -->
<svg version="1.1" xmlns="http://www.w3.org/2000/svg" xmlns:xlink="http://www.w3.org/1999/xlink" x="0px" y="0px"
	 viewBox="0 0 28 28" style="enable-background:new 0 0 28 28;" xml:space="preserve">
<style type="text/css">
	.st0{fill:#303030;}
</style>
<g id="レイヤー_1">
	<g>
		<path class="st0" d="M26,13.2c0.2-0.2,0.3-0.3,0.4-0.5c0-0.1,0-0.1,0-0.2c0-1.7-2.7-3.1-6.8-3.9c-0.7-4.1-2.1-7-3.8-7.1
			c-0.3,0.1-0.5,0.3-0.8,0.5c1.3,0.6,2.5,3,3.1,6.4c-1.4-0.2-2.8-0.3-4.3-0.3c-0.9,0-1.8,0-2.6,0.1c0.7-4.2,2.1-7.1,3.7-7.4v0
			l-1.4,0c-2.3,0-4.3,3.1-5.2,7.7c-4.1,0.7-7,2.1-7.1,3.8c0.1,0.3,0.3,0.5,0.5,0.8c0.6-1.3,3-2.5,6.4-3.1C8,10.6,8,11,7.9,11.5H5.2
			L9.6,16l4.3-4.5h-3.1c0-0.6,0.1-1.2,0.2-1.7c0.9-0.1,1.9-0.1,2.9-0.1c1.6,0,3.1,0.1,4.5,0.3c0,0.3,0.1,0.6,0.1,1l1.5,0.3
			c0-0.3-0.1-0.7-0.1-1C23.1,10.8,25.4,11.9,26,13.2z"/>
		<path class="st0" d="M15,26.3c0.2,0.2,0.3,0.3,0.5,0.4c0.1,0,0.1,0,0.2,0c1.5,0,2.8-2.1,3.6-5.4h-1.5C17.2,24,16.2,25.8,15,26.3z"
			/>
		<path class="st0" d="M11.3,21.2l-2.5-0.3c0.9,4.5,2.7,6.6,4.7,6.6l1.2,0v0C13.3,27.1,12,24.6,11.3,21.2z"/>
		<path class="st0" d="M27.1,13.1c-0.3,1.4-2.7,2.6-6.1,3.4v2.7c3.7-1,6.1-2.8,6.1-4.8L27.1,13.1L27.1,13.1z"/>
		<path class="st0" d="M13.9,20.1v2.8l4.5-4.5l-4.5-4.3v3.1c0,0,0,0-0.1,0c-7.1,0-13-1.9-13.3-4.2h0l0,1.5
			C0.6,17.5,6.5,20.1,13.9,20.1C13.9,20.1,13.9,20.1,13.9,20.1z"/>
	</g>
</g>
<g id="レイヤー_2">
</g>
</svg>
