<?xml version="1.0" encoding="UTF-8" standalone="no"?>
<svg
   xmlns:dc="http://purl.org/dc/elements/1.1/"
   xmlns:cc="http://creativecommons.org/ns#"
   xmlns:rdf="http://www.w3.org/1999/02/22-rdf-syntax-ns#"
   xmlns:svg="http://www.w3.org/2000/svg"
   xmlns="http://www.w3.org/2000/svg"
   version="1.1"
   id="レイヤー_1"
   x="0px"
   y="0px"
   viewBox="0 0 28 28"
   style="enable-background:new 0 0 28 28;"
   xml:space="preserve"><metadata
     id="metadata5344"><rdf:RDF><cc:Work
         rdf:about=""><dc:format>image/svg+xml</dc:format><dc:type
           rdf:resource="http://purl.org/dc/dcmitype/StillImage" /><dc:title></dc:title></cc:Work></rdf:RDF></metadata><defs
     id="defs5342" /><style
     type="text/css"
     id="style5322">
	.st0{fill:#303030;}
</style><path
     id="path6024-2-3"
     d="M 14.203117,0.67770165 11.409874,3.910143 8.6154212,7.14138 l 4.2302838,0 0,5.026635 -5.4670327,0 0,-4.230284 -3.2312359,2.794446 -3.23244791,2.79325 3.23244791,2.793242 3.2312359,2.794454 0,-4.230291 5.4670327,0 0,5.025431 -4.2302838,0 2.7944528,3.232442 2.793243,3.232441 2.793249,-3.232441 2.794447,-3.232442 -4.230285,0 0,-5.025431 4.585022,0 0,4.230291 3.232441,-2.794454 3.232448,-2.793242 -3.232448,-2.79325 -3.232441,-2.794446 0,4.230284 -4.585022,0 0,-5.026635 4.230285,0 -2.794447,-3.231237 -2.793249,-3.23244135 z"
     style="fill:#303030;fill-opacity:1;stroke:none;stroke-width:1.09399998;stroke-linecap:round;stroke-miterlimit:4;stroke-dasharray:none;stroke-dashoffset:10.93999958;stroke-opacity:1" /></svg>