<svg xmlns="http://www.w3.org/2000/svg" viewBox="0 0 400 400">
 <!-- Created with Method Draw - http://github.com/duopixel/Method-Draw/ -->

<g>
  <title>Layer 1</title>
  <path stroke="#000" id="svg_4" d="m384.92485,224.32357c0,-31.66773 -72.9776,-57.33953 -162.99999,-57.33953l0,-45.87162l0,0c90.02239,0 162.99999,25.67177 162.99999,57.33953l0,45.87162c0,26.14674 -50.28249,48.98209 -122.25,55.51877l0,24.27161l-39.74996,-45.38666l39.74996,-49.69606l0,24.93949l0,0c48.52824,-4.40772 93.81145,-23.39321 113.85936,-39.55221" stroke-width="1.5" fill="#000000"/>
  <path stroke="#000" transform="rotate(90 200.1148681640625,195.7780914306641) " id="svg_5" d="m82.10082,186.27809l236.02809,0l0,0c30.92035,0 55.98619,4.2533 55.98619,9.5c0,5.2467 -25.06585,9.5 -55.98619,9.5l-236.02809,0l0,0c-30.92032,0 -55.98619,-4.25329 -55.98619,-9.5c0,-5.24671 25.06587,-9.5 55.98619,-9.5z" stroke-opacity="null" stroke-width="1.5" fill="#000000"/>
  <path stroke="#000" id="svg_6" d="m15.91278,227.32367c0,-31.66773 72.08693,-57.33953 161.01063,-57.33953l0,-45.87162l0,0c-88.92369,0 -161.01063,25.67177 -161.01063,57.33953l0,45.87162c0,26.14674 49.66881,48.98209 120.75798,55.51877l0,24.27161l39.26482,-45.38666l-39.26482,-49.69606l0,24.93949l0,0c-47.93597,-4.40772 -92.66651,-23.39321 -112.46974,-39.55221" stroke-width="1.5" fill="#000000"/>
<path stroke="#000" transform="rotate(-90 252.40397644042977,258.3175659179688) " id="svg_7" d="m178.40154,287.29076l74.00243,-57.9464l74.00243,57.9464l-148.00485,0z" fill-opacity="null" stroke-opacity="null" stroke-width="1.5" fill="#000000"/>
  <path stroke="#000" transform="rotate(-90 146.40048217773446,260.31762695312506) " id="svg_8" d="m72.39806,231.28895l74.00242,58.05736l74.00243,-58.05736l-148.00485,0z" fill-opacity="null" stroke-opacity="null" stroke-width="1.5" fill="#000000"/>
 </g>
</svg>