<?xml version="1.0" encoding="UTF-8" standalone="no"?>
<svg
   xmlns:dc="http://purl.org/dc/elements/1.1/"
   xmlns:cc="http://creativecommons.org/ns#"
   xmlns:rdf="http://www.w3.org/1999/02/22-rdf-syntax-ns#"
   xmlns:svg="http://www.w3.org/2000/svg"
   xmlns="http://www.w3.org/2000/svg"
   xml:space="preserve"
   style="enable-background:new 0 0 28 28;"
   viewBox="0 0 28 28"
   y="0px"
   x="0px"
   id="レイヤー_1"
   version="1.1"><metadata
     id="metadata5344"><rdf:RDF><cc:Work
         rdf:about=""><dc:format>image/svg+xml</dc:format><dc:type
           rdf:resource="http://purl.org/dc/dcmitype/StillImage" /><dc:title></dc:title></cc:Work></rdf:RDF></metadata><defs
     id="defs5342" /><style
     id="style5322"
     type="text/css">
	.st0{fill:#303030;}
</style><g
     transform="matrix(0.67357636,0,0,0.65483892,9.0070907,9.1165771)"
     id="g5324"><polygon
       style="fill:#303030"
       id="polygon5326"
       points="23.1,24.8 19.7,24.8 19.7,27.1 27,27.1 27,20 24.7,20 24.7,23.1 19.6,18 17.9,19.6 "
       class="st0" /></g><g
     transform="matrix(0.67357636,0,0,0.65483892,0.58442862,9.1165771)"
     id="g5328"><polygon
       style="fill:#303030"
       id="polygon5330"
       points="0.7,27.1 0.7,20 3,20 3,23.1 8.2,18 9.8,19.6 4.6,24.8 8.1,24.8 8.1,27.1 "
       class="st0" /></g><g
     transform="matrix(0.67357636,0,0,0.65483892,9.0070907,0.02201387)"
     id="g5332"><polygon
       style="fill:#303030"
       id="polygon5334"
       points="27,8 24.7,8 24.7,4.9 19.6,10 17.9,8.4 23.1,3.2 19.7,3.2 19.7,0.9 27,0.9 "
       class="st0" /></g><g
     transform="matrix(0.67357636,0,0,0.65483892,0.58442862,0.02201578)"
     id="g5336"><polygon
       style="fill:#303030"
       id="polygon5338"
       points="3,4.9 8.2,10 9.8,8.4 4.6,3.2 8.1,3.2 8.1,0.9 0.7,0.9 0.7,8 3,8 "
       class="st0" /></g><circle
     r="8.8983049"
     cy="13.737041"
     cx="14.006148"
     id="path5886"
     style="fill:#303030;fill-opacity:1;stroke:none;stroke-width:1.09399998;stroke-linecap:round;stroke-miterlimit:4;stroke-dasharray:none;stroke-dashoffset:10.93999958;stroke-opacity:1" /></svg>