<?xml version="1.0" encoding="utf-8"?>
<!-- Generator: Adobe Illustrator 21.0.2, SVG Export Plug-In . SVG Version: 6.00 Build 0)  -->
<svg version="1.1" id="レイヤー_1" xmlns="http://www.w3.org/2000/svg" xmlns:xlink="http://www.w3.org/1999/xlink" x="0px"
	 y="0px" viewBox="0 0 28 28" style="enable-background:new 0 0 28 28;" xml:space="preserve">
<style type="text/css">
	.st0{fill:#303030;}
</style>
<path class="st0" d="M27.2,24.6l-5.8-6.3c-0.1-0.1-0.1-0.1-0.2-0.2c1.3-1.7,2.1-3.9,2.1-6.2c0.2-6.1-4.6-11.3-10.8-11.4
	C6.4,0.4,1.3,5.2,1.1,11.3c-0.2,6.1,4.6,11.3,10.8,11.4c2.5,0.1,4.9-0.7,6.8-2.1c0,0,0.1,0.1,0.1,0.1l5.8,6.3
	c0.3,0.4,0.8,0.6,1.3,0.6c0.5,0,0.9-0.1,1.3-0.5C27.8,26.5,27.9,25.4,27.2,24.6z M11.9,20.4c-4.8-0.1-8.6-4.2-8.5-9
	c0.1-4.8,4.2-8.6,9-8.5c4.8,0.1,8.6,4.2,8.5,9C20.8,16.7,16.7,20.5,11.9,20.4z"/>
<ellipse transform="matrix(3.033257e-02 -0.9995 0.9995 3.033257e-02 -3.3855 21.823)" class="st0" cx="9.6" cy="12.7" rx="4.1" ry="4.1"/>
<circle class="st0" cx="3.1" cy="24.5" r="1.9"/>
</svg>
