<?xml version="1.0" encoding="UTF-8" standalone="no"?>
<svg
   xmlns:dc="http://purl.org/dc/elements/1.1/"
   xmlns:cc="http://creativecommons.org/ns#"
   xmlns:rdf="http://www.w3.org/1999/02/22-rdf-syntax-ns#"
   xmlns:svg="http://www.w3.org/2000/svg"
   xmlns="http://www.w3.org/2000/svg"
   xml:space="preserve"
   style="enable-background:new 0 0 28 28;"
   viewBox="0 0 28 28"
   y="0px"
   x="0px"
   id="レイヤー_1"
   version="1.1"><metadata
     id="metadata5344"><rdf:RDF><cc:Work
         rdf:about=""><dc:format>image/svg+xml</dc:format><dc:type
           rdf:resource="http://purl.org/dc/dcmitype/StillImage" /><dc:title></dc:title></cc:Work></rdf:RDF></metadata><defs
     id="defs5342" /><style
     id="style5322"
     type="text/css">
	.st0{fill:#303030;}
</style><g
     transform="matrix(0.82432399,0,0,0.80139307,4.6314477,9.6189306)"
     id="g5336"><path
       id="path5896-6"
       d="m 0.70845376,17.669566 c 0,0 -10.11224366,-11.0448259 -2.16582606,-20.6933092 L -5.2919859,-6.9680792 5.7822889,-7.2503152 5.58887,4.22412 1.5023645,0.0206838 C -4.5058987,9.7003604 0.70845376,17.669566 0.70845376,17.669566 Z"
       style="fill:#303030;fill-opacity:1;stroke:none;stroke-width:1.09399998;stroke-linecap:round;stroke-miterlimit:4;stroke-dasharray:none;stroke-dashoffset:10.93999958;stroke-opacity:1" /><g
       transform="matrix(1.3423944,0,0,-1.3423944,-39.93154,-38.03225)"
       id="g6004"><rect
         style="fill:#303030;fill-opacity:1;stroke:none;stroke-width:1.09399998;stroke-linecap:round;stroke-miterlimit:4;stroke-dasharray:none;stroke-dashoffset:10.93999958;stroke-opacity:1"
         id="rect5966-3"
         width="1.7394146"
         height="8.4551392"
         x="31.342787"
         y="33.790089"
         transform="matrix(0,-1,1,0,0,0)" /><rect
         style="fill:#303030;fill-opacity:1;stroke:none;stroke-width:1.09399998;stroke-linecap:round;stroke-miterlimit:4;stroke-dasharray:none;stroke-dashoffset:10.93999958;stroke-opacity:1"
         id="rect5966-3-8"
         width="1.6910278"
         height="8.697073"
         x="37.172146"
         y="-36.561031" /></g><path
       id="path5896-6-6"
       d="m 21.497853,-7.2503142 c 0,0 10.112243,11.0448233 2.165825,20.6933072 l 3.834614,3.944335 -11.074275,0.282237 0.19342,-11.4744358 4.086506,4.2034388 c 6.008262,-9.6796787 0.79391,-17.6488822 0.79391,-17.6488822 z"
       style="fill:#303030;fill-opacity:1;stroke:none;stroke-width:1.09399998;stroke-linecap:round;stroke-miterlimit:4;stroke-dasharray:none;stroke-dashoffset:10.93999958;stroke-opacity:1" /></g></svg>