<svg xmlns="http://www.w3.org/2000/svg" viewBox="0 0 400 400">
 <!-- Created with Method Draw - http://github.com/duopixel/Method-Draw/ -->

<g>
  <title>Layer 1</title>
  <ellipse stroke="#000" ry="31" rx="31" id="svg_1" cy="62.5" cx="211.5" stroke-width="1.5" fill="#000000"/>
  <path stroke="#000" transform="rotate(-82 199.3305053710937,170.25146484374997) " id="svg_3" d="m151.39621,150.75439l95.86859,0l0,0c12.55906,0 22.74016,8.72915 22.74016,19.49709c0,10.76794 -10.18111,19.49708 -22.74016,19.49708l-95.86859,0l0,0c-12.55904,0 -22.74016,-8.72914 -22.74016,-19.49708c0,-10.76795 10.18112,-19.49709 22.74016,-19.49709z" stroke-opacity="null" stroke-width="1.5" fill="#000000"/>
  <path stroke="#000" transform="rotate(-92 184.43505859375003,265.9067077636719) " id="svg_4" d="m153.73286,254.9239l61.40438,0l0,0c8.04415,0 14.5652,4.91717 14.5652,10.98281c0,6.06564 -6.52106,10.9828 -14.5652,10.9828l-61.40438,0l0,0c-8.04414,0 -14.5652,-4.91717 -14.5652,-10.9828c0,-6.06564 6.52107,-10.98281 14.5652,-10.98281z" stroke-opacity="null" stroke-width="1.5" fill="#000000"/>
  <path stroke="#000" transform="rotate(-128.17462158203125 227.43505859375,261.9067077636719) " id="svg_5" d="m196.73286,250.9239l61.40438,0l0,0c8.04415,0 14.5652,4.91718 14.5652,10.98281c0,6.06564 -6.52106,10.98281 -14.5652,10.98281l-61.40438,0l0,0c-8.04414,0 -14.5652,-4.91717 -14.5652,-10.98281c0,-6.06563 6.52106,-10.98281 14.5652,-10.98281z" stroke-opacity="null" stroke-width="1.5" fill="#000000"/>
  <path stroke="#000" transform="rotate(-59 164.50260925292983,330.97180175781256) " id="svg_6" d="m134.69093,319.98901l59.62333,0l0,0c7.81083,0 14.14273,4.91718 14.14273,10.98281c0,6.06564 -6.33192,10.98281 -14.14273,10.98281l-59.62333,0l0,0c-7.81082,0 -14.14273,-4.91717 -14.14273,-10.98281c0,-6.06563 6.33192,-10.98281 14.14273,-10.98281z" stroke-opacity="null" stroke-width="1.5" fill="#000000"/>
  <path stroke="#000" transform="rotate(-82 243.8211059570312,329.3907165527343) " id="svg_7" d="m215.51686,318.4079l56.60851,0l0,0c7.41588,0 13.42761,4.91718 13.42761,10.98281c0,6.06564 -6.01174,10.98281 -13.42761,10.98281l-56.60851,0l0,0c-7.41587,0 -13.42761,-4.91717 -13.42761,-10.98281c0,-6.06563 6.01174,-10.98281 13.42761,-10.98281z" stroke-opacity="null" stroke-width="1.5" fill="#000000"/>
  <path stroke="#000" transform="rotate(-43 172.43505859375,136.90670776367188) " id="svg_8" d="m141.73286,125.9239l61.40438,0l0,0c8.04415,0 14.5652,4.91718 14.5652,10.98281c0,6.06564 -6.52106,10.98281 -14.5652,10.98281l-61.40438,0l0,0c-8.04414,0 -14.5652,-4.91717 -14.5652,-10.98281c0,-6.06563 6.52106,-10.98281 14.5652,-10.98281z" stroke-opacity="null" stroke-width="1.5" fill="#000000"/>
  <path stroke="#000" transform="rotate(-114.27326965332031 229.43505859375003,151.90670776367188) " id="svg_9" d="m198.73286,140.9239l61.40438,0l0,0c8.04415,0 14.5652,4.91718 14.5652,10.98281c0,6.06564 -6.52106,10.98281 -14.5652,10.98281l-61.40438,0l0,0c-8.04414,0 -14.5652,-4.91717 -14.5652,-10.98281c0,-6.06563 6.52106,-10.98281 14.5652,-10.98281z" stroke-opacity="null" stroke-width="1.5" fill="#000000"/>
  <path stroke="#000" transform="rotate(-84.73088836669922 138.6673583984375,198.36907958984375) " id="svg_10" d="m111.70639,187.38627l53.92194,0l0,0c7.06393,0 12.79036,4.91718 12.79036,10.98281c0,6.06564 -5.72644,10.98281 -12.79036,10.98281l-53.92194,0l0,0c-7.06393,0 -12.79036,-4.91717 -12.79036,-10.98281c0,-6.06563 5.72643,-10.98281 12.79036,-10.98281z" stroke-opacity="null" stroke-width="1.5" fill="#000000"/>
  <path stroke="#000" transform="rotate(-132 262.82592773437494,201.44979858398435) " id="svg_11" d="m240.85997,190.46699l43.93192,0l0,0c5.75521,0 10.42071,4.91718 10.42071,10.98281c0,6.06564 -4.66551,10.98281 -10.42071,10.98281l-43.93192,0l0,0c-5.7552,0 -10.42071,-4.91717 -10.42071,-10.98281c0,-6.06563 4.66551,-10.98281 10.42071,-10.98281z" stroke-opacity="null" stroke-width="1.5" fill="#000000"/>
 </g>
</svg>