<!--?xml version="1.0" encoding="utf-8"?-->
<!-- Generator: Adobe Illustrator 18.1.1, SVG Export Plug-In . SVG Version: 6.00 Build 0)  -->

<svg version="1.1" id="_x32_" xmlns="http://www.w3.org/2000/svg" xmlns:xlink="http://www.w3.org/1999/xlink" x="0px" y="0px" viewBox="0 0 512 512" style="width: 100%; height: 100%; opacity: 1;" xml:space="preserve">
<style type="text/css">
	.st0{fill:#4B4B4B;}
</style>
<g>
	<path class="st0" d="M256.002,0c-141.16,0-256,114.836-256,255.996c0,141.16,114.84,256.004,256,256.004
		c141.161,0,255.996-114.843,255.996-256.004C511.998,114.836,397.163,0,256.002,0z M256.002,466.046
		c-116,0-210.049-94.046-210.049-210.049c0-115.997,94.049-210.049,210.049-210.049c115.997,0,210.049,94.052,210.049,210.049
		C466.051,372,371.999,466.046,256.002,466.046z" style="fill: rgb(75, 75, 75);"></path>
	<rect x="196.925" y="196.922" class="st0" width="118.151" height="118.155" style="fill: rgb(75, 75, 75);"></rect>

<rect x="80" y="60" width="50" height="40" fill="yellow" stroke="blue" stroke-width="4" />

<circle cx="50" cy="50" r="40" fill="none" stroke="black" stroke-width="2" />
<circle cx="50" cy="150" r="40" fill="white" stroke="black" stroke-width="4" stroke-dasharray="8 8"/>
<ellipse cx="200" cy="50" rx="80" ry="40" fill="red" stroke="black" stroke-width="2" />
<circle cx="30" cy="30" r="30" fill="green" />

<path d="M 120,30 a 40 20 0 1 1 90 60" fill="none" stroke="black"/>

  <path fill="red" stroke-width="2" stroke-opacity="null" fill-opacity="null" d="m79,126.08826c0,-10.45912 -34.9218,-18.93792 -78.00001,-18.93792l0,-15.15034l0,0c43.07821,0 78.00001,8.4788 78.00001,18.93792l0,15.15034c0,8.63566 -24.06156,16.17765 -58.50001,18.33657l0,7.57517l-19.5,-14.54898l19.5,-15.7517l0,7.57517l0,0c23.22211,-1.45577 42.39472,-5.42445 51.9882,-10.7614" id="svg_1" stroke="#000"/>

</g>
</svg>
