<?xml version="1.0" encoding="utf-8"?>
<!-- Generator: Adobe Illustrator 21.0.2, SVG Export Plug-In . SVG Version: 6.00 Build 0)  -->
<svg version="1.1" id="レイヤー_1" xmlns="http://www.w3.org/2000/svg" xmlns:xlink="http://www.w3.org/1999/xlink" x="0px"
	 y="0px" viewBox="0 0 27.3 26.4" style="enable-background:new 0 0 27.3 26.4;" xml:space="preserve">
<style type="text/css">
	.st0{fill:#686868;}
	.st1{fill:#FECD00;}
</style>
<rect x="4.6" y="3.4" transform="matrix(9.222673e-11 -1 1 9.222673e-11 4.1729 11.5721)" class="st0" width="6.6" height="0.7"/>
<rect x="0.3" y="7" class="st1" width="19.8" height="19"/>
<path class="st0" d="M26.6,20h-7c-0.2,0-0.3-0.2-0.3-0.3s0.2-0.3,0.3-0.3h7c0.2,0,0.3,0.2,0.3,0.3S26.8,20,26.6,20z"/>
<path d="M19.6,26.4c-0.1,0-0.3-0.1-0.3-0.2c-0.2-0.2-0.1-0.5,0-0.6l7.2-6.3c0.2-0.2,0.5-0.1,0.6,0c0.2,0.2,0.1,0.5,0,0.6l-7.2,6.3
	C19.8,26.3,19.7,26.4,19.6,26.4z"/>
<path d="M19.6,7.2c-0.1,0-0.3-0.1-0.3-0.2c-0.2-0.2-0.1-0.5,0-0.6l7.2-6.3c0.2-0.2,0.5-0.1,0.6,0c0.2,0.2,0.1,0.5,0,0.6l-7.2,6.3
	C19.8,7.2,19.7,7.2,19.6,7.2z"/>
<path d="M0.6,7.1C0.5,7.1,0.4,7,0.3,6.9c-0.2-0.2-0.1-0.5,0-0.6l7.1-6.2C7.6-0.1,7.9,0,8,0.2c0.2,0.2,0.1,0.5,0,0.6L0.9,7
	C0.8,7,0.7,7.1,0.6,7.1z"/>
<path d="M19.6,26.4H0.5c-0.3,0-0.5-0.2-0.5-0.5V6.7c0-0.3,0.2-0.5,0.5-0.5h19.2c0.3,0,0.5,0.2,0.5,0.5v19.2
	C20.1,26.2,19.9,26.4,19.6,26.4z M0.9,25.5h18.3V7.2H0.9V25.5z"/>
<g>
	<path d="M26.9,0H7.7C7.4,0,7.2,0.2,7.2,0.5v0.5h0.9h2.2h16.1v18.7c0,0.3,0.2,0.5,0.5,0.5s0.5-0.2,0.5-0.5V0.5
		C27.3,0.2,27.1,0,26.9,0z"/>
</g>
</svg>
