<?xml version="1.0" encoding="utf-8"?>
<!-- Generator: Adobe Illustrator 21.0.2, SVG Export Plug-In . SVG Version: 6.00 Build 0)  -->
<svg version="1.1" id="レイヤー_1" xmlns="http://www.w3.org/2000/svg" xmlns:xlink="http://www.w3.org/1999/xlink" x="0px"
	 y="0px" viewBox="0 0 31.5 31.1" style="enable-background:new 0 0 31.5 31.1;" xml:space="preserve">
<style type="text/css">
	.st0{fill:none;stroke:#686868;stroke-width:0.75;stroke-linecap:round;stroke-linejoin:round;stroke-miterlimit:10;}
	.st1{fill:#FECD00;}
</style>
<polyline class="st0" points="16.1,17.4 26.9,23.9 26,24.5"
	transform="matrix(-1,0,0,1,31.294937,-0.01939452)"/>
<polyline class="st0" points="31.1,21.7 15.7,30.7 15.6,30.7 0.4,21.7"/>
<polygon class="st1" points="15.7,30.7 4.2,23.7 4.2,10.5 15.7,17.5"
     transform="matrix(1,0,0,-1,0.1240158,34.189173)"/>
<line class="st0" x1="15.7" y1="0.4" x2="15.7" y2="17.2"/>
<polyline class="st0" points="16.1,17.4 26.9,23.9 26,24.5 "/>
<path d="M15.7,31.1c-0.1,0-0.2,0-0.2-0.1L4,24.4c-0.2-0.1-0.2-0.3-0.2-0.4V10.4c0-0.2,0.1-0.3,0.3-0.4c0.2-0.1,0.3-0.1,0.5,0
	L16,16.8c0.2,0.1,0.2,0.3,0.2,0.4v13.4c0,0.2-0.1,0.3-0.2,0.4C15.9,31.1,15.8,31.1,15.7,31.1z M4.8,23.7l10.4,6V17.5L4.8,11.3V23.7z
	"/>
<path d="M15.7,31.1c-0.1,0-0.2,0-0.2-0.1c-0.2-0.1-0.2-0.3-0.2-0.4V17.2c0-0.2,0.1-0.3,0.2-0.4L26.9,10c0.2-0.1,0.3-0.1,0.5,0
	c0.2,0.1,0.3,0.3,0.3,0.4V24c0,0.2-0.1,0.3-0.2,0.4L16,31C15.9,31.1,15.8,31.1,15.7,31.1z M16.2,17.5v12.2l10.4-6V11.3L16.2,17.5z"
	/>
<path d="M15.7,17.6c-0.1,0-0.2,0-0.3-0.1L4,10.8c-0.2-0.1-0.2-0.3-0.2-0.4S3.9,10,4,9.9l11.5-6.8C15.6,3,15.8,3,16,3.1l11.5,6.8
	c0.2,0.1,0.2,0.3,0.2,0.4s-0.1,0.3-0.2,0.4L16,17.5C15.9,17.6,15.8,17.6,15.7,17.6z M5.3,10.3l10.5,6.2l10.5-6.2L15.7,4.1L5.3,10.3z
	"/>
</svg>
