<?xml version="1.0" encoding="UTF-8" standalone="no"?>
<svg
   xmlns:dc="http://purl.org/dc/elements/1.1/"
   xmlns:cc="http://creativecommons.org/ns#"
   xmlns:rdf="http://www.w3.org/1999/02/22-rdf-syntax-ns#"
   xmlns:svg="http://www.w3.org/2000/svg"
   xmlns="http://www.w3.org/2000/svg"
   version="1.1"
   id="レイヤー_1"
   x="0px"
   y="0px"
   viewBox="0 0 28 28"
   style="enable-background:new 0 0 28 28;"
   xml:space="preserve"><metadata
     id="metadata5344"><rdf:RDF><cc:Work
         rdf:about=""><dc:format>image/svg+xml</dc:format><dc:type
           rdf:resource="http://purl.org/dc/dcmitype/StillImage" /><dc:title></dc:title></cc:Work></rdf:RDF></metadata><defs
     id="defs5342" /><style
     type="text/css"
     id="style5322">
	.st0{fill:#303030;}
</style><g
     id="g13719"
     transform="matrix(0.72014242,0,0,0.72014242,-384.98526,-132.70918)"><g
       id="g5107"
       transform="matrix(1.25,0,0,-1.25,533.64813,224.03955)"
       style="fill:#303030;fill-opacity:1;stroke:none;stroke-opacity:1"><g
         id="g5109"
         style="fill:#303030;fill-opacity:1;stroke:none;stroke-opacity:1"><g
           id="g5115"
           style="fill:#303030;fill-opacity:1;stroke:none;stroke-opacity:1"><g
             id="g5117"
             style="fill:#303030;fill-opacity:1;stroke:none;stroke-opacity:1"><path
               d="m 27,31 c -2.761,-0.611 -5.986,-5.671 -6.217,-7.895 l 0,0 C 20.551,20.88 20.53,18.522 20.299,16.298 l 0,0 5.386,-2.247 1.075,1.686 c 0,0 2.15,3.374 2.918,6.441 l 0,0 c 0.735,2.929 0.142,8.862 -2.315,8.863 l 0,0 C 27.246,31.041 27.125,31.027 27,31"
               style="fill:#303030;fill-opacity:1;stroke:none;stroke-opacity:1"
               id="path5127" /></g></g></g></g><g
       id="g5129"
       transform="matrix(1.25,0,0,-1.25,533.64813,224.03955)"
       style="fill:#303030;fill-opacity:1"><g
         id="g5131"
         style="fill:#303030;fill-opacity:1"><g
           id="g5137"
           style="fill:#303030;fill-opacity:1"><g
             id="g5139"
             style="fill:#303030;fill-opacity:1"><path
               d="m 20.005,6.998 c 2.53,-1.611 4.618,4.172 4.618,4.172 l 0,0 -5.227,1.997 c 0,0 -2.62,-4.111 0.609,-6.169"
               style="fill:#303030;fill-opacity:1;stroke:none"
               id="path5149" /></g></g></g></g><g
       id="g5151"
       transform="matrix(1.25,0,0,-1.25,533.64813,224.03955)"
       style="fill:#303030;fill-opacity:1;stroke:none;stroke-opacity:1"><g
         id="g5153"
         style="fill:#303030;fill-opacity:1;stroke:none;stroke-opacity:1"><g
           id="g5159"
           style="fill:#303030;fill-opacity:1;stroke:none;stroke-opacity:1"><g
             id="g5161"
             style="fill:#303030;fill-opacity:1;stroke:none;stroke-opacity:1"><path
               d="M 3.62,16.452 C 4.313,13.367 6.378,9.941 6.378,9.941 l 0,0 1.033,-1.712 5.44,2.112 c -0.176,2.229 -0.139,4.587 -0.315,6.817 l 0,0 c -0.176,2.229 -3.274,7.367 -6.02,8.046 l 0,0 c -0.138,0.035 -0.271,0.051 -0.399,0.051 l 0,0 c -2.427,0 -3.155,-5.873 -2.497,-8.803"
               style="fill:#303030;fill-opacity:1;stroke:none;stroke-opacity:1"
               id="path5171" /></g></g></g></g><g
       id="g5173"
       transform="matrix(1.25,0,0,-1.25,533.64813,224.03955)"
       style="fill:#303030;fill-opacity:1;stroke:none"><g
         id="g5175"
         style="fill:#303030;fill-opacity:1;stroke:none"><g
           id="g5181"
           style="fill:#303030;fill-opacity:1;stroke:none"><g
             id="g5183"
             style="fill:#303030;fill-opacity:1;stroke:none"><path
               d="m 8.401,5.323 c 0,0 1.945,-5.834 4.513,-4.285 l 0,0 c 3.279,1.976 0.762,6.151 0.762,6.151 l 0,0 -5.275,-1.866 z"
               style="fill:#303030;fill-opacity:1;stroke:none"
               id="path5193" /></g></g></g></g></g></svg>