<?xml version="1.0" encoding="utf-8"?>
<!-- Generator: Adobe Illustrator 21.0.2, SVG Export Plug-In . SVG Version: 6.00 Build 0)  -->
<svg version="1.1" id="レイヤー_1" xmlns="http://www.w3.org/2000/svg" xmlns:xlink="http://www.w3.org/1999/xlink" x="0px"
	 y="0px" viewBox="0 0 148.9 26.5" style="enable-background:new 0 0 148.9 26.5;" xml:space="preserve">
<style type="text/css">
	.st0{fill-rule:evenodd;clip-rule:evenodd;fill:#FFFFFF;}
	.st1{fill:#FFFFFF;}
</style>
<g>
	<path class="st0" d="M88.1,1.2c-0.3-0.3-0.2-1,0.1-1.1c1.5,0.1,2.7,0.1,4.2,0.1c1.7,0,3.2,0,4.1-0.1c0.3,0.2,0.3,0.9,0.1,1.1
		L96,1.3c-0.7,0.1-1.1,0.2-1.1,0.5c0,0.3,0.2,0.7,0.8,1.9c0.8,1.5,3,5.5,3.7,6.5c0.8-1.1,3.6-6,4.3-7.4c0.3-0.5,0.4-0.8,0.4-1
		c-0.1-0.3-0.5-0.4-1-0.5l-0.7-0.2c-0.3-0.3-0.3-0.9,0.1-1.1c1.3,0.1,2.3,0.1,3.4,0.1c1.1,0,2,0,3.2-0.1c0.3,0.2,0.3,0.8,0.1,1.1
		l-0.9,0.2c-1.3,0.3-1.8,0.9-3.3,3c-1.3,1.9-2.7,4.2-4,6.4c-0.3,0.7-0.5,1-0.5,1.1c0,0.2,0.1,0.5,0.5,1.3c2,3.4,4,7,5.5,9.3
		c0.9,1.5,1.6,1.9,2.9,2.2l0.8,0.2c0.2,0.2,0.2,0.9-0.1,1.1c-1.6-0.1-3-0.1-4.6-0.1c-1.6,0-3,0-4.6,0.1c-0.3-0.2-0.4-0.9-0.1-1.1
		l1.2-0.3c0.4-0.1,0.7-0.2,0.7-0.5c0-0.3-0.2-0.9-0.9-2.1l-0.6-1c-0.8-1.4-1.8-3.3-3.2-5.6c-1.3,2.1-3.2,5.3-4.4,7.7
		c-0.3,0.5-0.4,0.9-0.4,1.1c0,0.3,0.4,0.4,0.8,0.5l0.9,0.2c0.3,0.3,0.2,1-0.1,1.1c-1.1-0.1-2.4-0.1-3.8-0.1c-1.1,0-2.2,0-3.2,0.1
		c-0.3-0.3-0.3-0.8-0.1-1.1l0.9-0.2c1.4-0.3,2.2-0.8,3.4-2.7c0.7-1.1,2.8-4.5,4.5-7.1c0.3-0.5,0.5-0.9,0.5-1.1c0-0.2-0.1-0.5-0.4-1
		c-1.5-2.6-3.6-6.5-4.9-8.6c-1-1.7-1.6-2.4-2.6-2.6L88.1,1.2z"/>
	<path class="st0" d="M124,16.2c-1.3,3.5-2.8,8.1-3.4,10.1c-0.1,0.1-0.3,0.2-0.6,0.2c-0.2,0-0.5-0.1-0.6-0.2
		c-0.4-1.6-0.9-3.5-1.5-5.1l-5.7-16.4c-0.9-2.6-1.2-3.2-2.5-3.5l-0.8-0.2c-0.2-0.3-0.2-1,0.1-1.1c1.3,0.1,2.7,0.1,3.9,0.1
		c1.5,0,2.6,0,4.3-0.1c0.3,0.2,0.3,0.9,0,1.1l-0.8,0.2c-0.7,0.2-1,0.4-1,0.7c0,0.4,0.3,1.2,1.6,5.2l2.3,6.9c0.6,1.8,1.5,4.1,1.8,4.9
		c1.8-4.9,3.7-10.3,5.4-15.6c0.5-1.6,0.4-1.9-0.6-2.1l-0.9-0.3c-0.2-0.3-0.2-0.9,0.1-1.1c1.3,0.1,2.4,0.1,3.5,0.1
		c1.2,0,2.3,0,3.2-0.1c0.3,0.2,0.2,0.8,0.1,1.1l-0.8,0.2c-0.8,0.2-1.5,0.5-2,1.6c-0.9,1.9-1.9,4.5-3.3,8.4L124,16.2z"/>
	<path class="st0" d="M138.2,19.5c0,1.9,0.1,3.4,0.6,4c0.4,0.5,0.9,0.9,3.5,0.9c3.6,0,4.1-0.2,5.6-4.2c0.3-0.2,0.9-0.1,1,0.2
		c-0.3,1.6-1,4.6-1.4,5.6c-1.4-0.1-4.2-0.1-7.8-0.1h-3.4c-1.7,0-3.3,0-4.7,0.1c-0.3-0.2-0.4-0.9-0.1-1.1l1-0.2
		c1.5-0.2,1.8-0.4,1.8-4.4V5.8c0-4.1-0.3-4.2-1.8-4.4l-0.9-0.2c-0.2-0.2-0.2-1,0.1-1.1c1.6,0.1,3.1,0.1,4.6,0.1c1.4,0,2.9,0,4.3-0.1
		c0.3,0.2,0.3,0.9,0.1,1.1L140,1.4c-1.5,0.3-1.8,0.4-1.8,4.4V19.5z"/>
	<g>
		<path class="st1" d="M146.6,4.6c-1.2,0-2.2-1-2.2-2.3s1-2.3,2.2-2.3c1.2,0,2.2,1,2.2,2.3S147.9,4.6,146.6,4.6z M146.6,0.3
			c-1.1,0-2,0.9-2,2s0.9,2,2,2c1.1,0,2-0.9,2-2S147.7,0.3,146.6,0.3z"/>
		<path class="st0" d="M146,2.2h0.7c0.1,0,0.3,0,0.3-0.1c0.1,0,0.1-0.1,0.2-0.2c0-0.1,0.1-0.2,0.1-0.2c0-0.1,0-0.2-0.1-0.3
			c-0.1-0.1-0.2-0.1-0.4-0.1H146V2.2z M145.7,3.7V1h1.1c0.2,0,0.4,0,0.5,0.1c0.1,0,0.2,0.1,0.3,0.3c0.1,0.1,0.1,0.3,0.1,0.4
			c0,0.2-0.1,0.4-0.2,0.5c-0.1,0.1-0.3,0.2-0.5,0.3c0.1,0,0.2,0.1,0.2,0.1c0.1,0.1,0.2,0.2,0.3,0.4l0.4,0.7h-0.4l-0.3-0.6
			c-0.1-0.2-0.2-0.3-0.2-0.4c-0.1-0.1-0.1-0.1-0.2-0.2c0,0-0.1-0.1-0.1-0.1c0,0-0.1,0-0.2,0H146v1.2H145.7z"/>
	</g>
</g>
<g>
	<path class="st1" d="M0,13.2h1.3v1.1c0.3-0.4,0.6-0.7,0.9-0.9c0.5-0.3,1-0.5,1.6-0.5c0.9,0,1.7,0.4,2.3,1.1c0.6,0.7,1,1.7,1,3
		c0,1.8-0.5,3-1.4,3.8c-0.6,0.5-1.3,0.7-2.1,0.7c-0.6,0-1.1-0.1-1.5-0.4c-0.2-0.2-0.5-0.4-0.8-0.8v4.1H0V13.2z M5.1,19.5
		c0.4-0.5,0.6-1.3,0.6-2.4c0-0.6-0.1-1.2-0.3-1.7c-0.4-0.9-1-1.3-1.9-1.3c-0.9,0-1.6,0.5-1.9,1.4c-0.2,0.5-0.3,1.1-0.3,1.9
		c0,0.6,0.1,1.2,0.3,1.6c0.4,0.8,1,1.3,1.9,1.3C4.2,20.3,4.7,20,5.1,19.5z"/>
	<path class="st1" d="M14.8,13.9c0.7,0.7,1.1,1.7,1.1,3.1c0,1.3-0.3,2.4-0.9,3.2c-0.6,0.9-1.6,1.3-2.9,1.3c-1.1,0-2-0.4-2.6-1.1
		s-1-1.8-1-3c0-1.4,0.3-2.4,1-3.3c0.7-0.8,1.6-1.2,2.8-1.2C13.2,12.9,14,13.2,14.8,13.9z M13.9,19.3c0.3-0.7,0.5-1.4,0.5-2.3
		c0-0.8-0.1-1.4-0.4-1.8c-0.4-0.7-1-1.1-2-1.1c-0.8,0-1.4,0.3-1.8,1c-0.4,0.6-0.6,1.4-0.6,2.3c0,0.9,0.2,1.6,0.6,2.2s1,0.9,1.8,0.9
		C13,20.3,13.6,20,13.9,19.3z"/>
	<path class="st1" d="M18.3,13.1l1.6,6.4l1.6-6.4H23l1.6,6.3l1.7-6.3h1.4l-2.4,8.1h-1.4l-1.6-6.3l-1.6,6.3h-1.4l-2.3-8.1H18.3z"/>
	<path class="st1" d="M34,13.3c0.5,0.3,0.9,0.6,1.2,1c0.3,0.4,0.5,0.9,0.5,1.4c0.1,0.4,0.1,1,0.1,1.8H30c0,0.8,0.2,1.5,0.6,2
		s0.9,0.7,1.7,0.7c0.7,0,1.3-0.2,1.7-0.7c0.2-0.3,0.4-0.6,0.5-1h1.3c0,0.3-0.2,0.6-0.4,1c-0.2,0.4-0.4,0.7-0.7,0.9
		c-0.4,0.4-0.9,0.7-1.5,0.8c-0.3,0.1-0.7,0.1-1.1,0.1c-1,0-1.9-0.4-2.5-1.1c-0.7-0.7-1-1.8-1-3.1c0-1.3,0.4-2.4,1.1-3.2
		c0.7-0.8,1.6-1.2,2.8-1.2C32.9,12.9,33.5,13.1,34,13.3z M34.5,16.5c-0.1-0.6-0.2-1.1-0.4-1.4c-0.4-0.7-1-1-1.9-1
		c-0.6,0-1.1,0.2-1.6,0.7c-0.4,0.5-0.6,1-0.7,1.7H34.5z"/>
	<path class="st1" d="M37.8,13.1h1.3v1.4c0.1-0.3,0.4-0.6,0.8-1c0.4-0.4,0.9-0.6,1.4-0.6c0,0,0.1,0,0.1,0c0.1,0,0.2,0,0.3,0v1.4
		c-0.1,0-0.2,0-0.2,0s-0.1,0-0.2,0c-0.7,0-1.2,0.2-1.6,0.7c-0.4,0.4-0.6,1-0.6,1.5v4.7h-1.4V13.1z"/>
	<path class="st1" d="M48.1,13.3c0.5,0.3,0.9,0.6,1.2,1c0.3,0.4,0.5,0.9,0.5,1.4c0.1,0.4,0.1,1,0.1,1.8h-5.9c0,0.8,0.2,1.5,0.6,2
		s0.9,0.7,1.7,0.7c0.7,0,1.3-0.2,1.7-0.7c0.2-0.3,0.4-0.6,0.5-1h1.3c0,0.3-0.2,0.6-0.4,1c-0.2,0.4-0.4,0.7-0.7,0.9
		c-0.4,0.4-0.9,0.7-1.5,0.8c-0.3,0.1-0.7,0.1-1.1,0.1c-1,0-1.9-0.4-2.5-1.1c-0.7-0.7-1-1.8-1-3.1c0-1.3,0.4-2.4,1.1-3.2
		c0.7-0.8,1.6-1.2,2.8-1.2C47,12.9,47.6,13.1,48.1,13.3z M48.6,16.5c-0.1-0.6-0.2-1.1-0.4-1.4c-0.4-0.7-1-1-1.9-1
		c-0.6,0-1.1,0.2-1.6,0.7c-0.4,0.5-0.6,1-0.7,1.7H48.6z"/>
	<path class="st1" d="M56.3,13.4c0.2,0.2,0.5,0.4,0.8,0.8v-4.1h1.3v11.2h-1.2v-1.1c-0.3,0.5-0.7,0.9-1.1,1.1
		c-0.4,0.2-0.9,0.3-1.5,0.3c-0.9,0-1.7-0.4-2.3-1.1c-0.7-0.8-1-1.8-1-3c0-1.2,0.3-2.2,0.9-3.1c0.6-0.9,1.5-1.3,2.6-1.3
		C55.4,13,55.9,13.1,56.3,13.4z M53.3,19.4c0.4,0.6,1,0.9,1.8,0.9c0.6,0,1.1-0.3,1.5-0.8c0.4-0.5,0.6-1.3,0.6-2.3
		c0-1-0.2-1.8-0.6-2.3s-0.9-0.7-1.5-0.7c-0.7,0-1.2,0.3-1.7,0.8c-0.4,0.5-0.6,1.3-0.6,2.3C52.7,18.1,52.9,18.9,53.3,19.4z"/>
	<path class="st1" d="M65,10.1h1.3v4c0.3-0.4,0.7-0.7,1.1-0.9c0.4-0.2,0.9-0.3,1.4-0.3c1,0,1.8,0.3,2.5,1c0.6,0.7,0.9,1.7,0.9,3.1
		c0,1.3-0.3,2.3-0.9,3.2s-1.5,1.3-2.6,1.3c-0.6,0-1.1-0.1-1.6-0.4c-0.3-0.2-0.5-0.5-0.8-0.8v1H65V10.1z M70.2,19.4
		c0.4-0.6,0.5-1.4,0.5-2.3c0-0.9-0.2-1.6-0.5-2.1c-0.4-0.6-0.9-0.8-1.6-0.8c-0.6,0-1.2,0.2-1.6,0.7c-0.5,0.5-0.7,1.2-0.7,2.3
		c0,0.8,0.1,1.4,0.3,1.9c0.4,0.9,1,1.3,2,1.3C69.3,20.3,69.8,20,70.2,19.4z"/>
	<path class="st1" d="M79,13.1h1.5c-0.2,0.5-0.6,1.7-1.3,3.6c-0.5,1.4-0.9,2.5-1.2,3.4c-0.8,2.1-1.3,3.3-1.7,3.8
		c-0.3,0.5-0.9,0.7-1.7,0.7c-0.2,0-0.3,0-0.4,0s-0.2,0-0.4-0.1v-1.2c0.2,0.1,0.4,0.1,0.5,0.1c0.1,0,0.2,0,0.3,0c0.3,0,0.4,0,0.6-0.1
		s0.2-0.2,0.3-0.3c0,0,0.1-0.2,0.3-0.6c0.2-0.4,0.3-0.6,0.3-0.8l-3-8.3h1.5l2.2,6.6L79,13.1z"/>
</g>
</svg>
