<?xml version="1.0" encoding="utf-8"?>
<!-- Generator: Adobe Illustrator 21.0.2, SVG Export Plug-In . SVG Version: 6.00 Build 0)  -->
<svg version="1.1" id="レイヤー_1" xmlns="http://www.w3.org/2000/svg" xmlns:xlink="http://www.w3.org/1999/xlink" x="0px"
	 y="0px" viewBox="0 0 240.7 27" style="enable-background:new 0 0 240.7 27;" xml:space="preserve">
<style type="text/css">
	.st0{fill:#FFFFFF;}
</style>
<g>
	<path class="st0" d="M13.9,3.5c0-0.2,0-0.3-0.1-0.4c-0.1-0.1-0.2-0.2-0.3-0.2c-0.1-0.1-0.3-0.1-0.5-0.1s-0.4,0-0.6,0h-0.1V1.2h6.3
		v1.4h-0.3c-0.3,0-0.5,0-0.7,0.1S17.2,2.9,17,3.1c-0.2,0.2-0.4,0.4-0.6,0.6s-0.4,0.6-0.7,0.9L11.7,10l5,7.7c0.4,0.6,0.7,0.9,1.1,1.1
		c0.4,0.2,0.7,0.3,1.1,0.3h0.4v1.4h-8.9v-1.4h0.1c1.1,0,1.6-0.3,1.6-0.9c0-0.1,0-0.2,0-0.3c0-0.1-0.1-0.2-0.1-0.3s-0.2-0.3-0.3-0.5
		c-0.1-0.2-0.3-0.4-0.5-0.7l-2.5-3.8l-2.9,3.9c-0.2,0.2-0.3,0.5-0.5,0.8c-0.1,0.3-0.2,0.6-0.2,0.9c0,0.3,0.1,0.5,0.4,0.7
		c0.2,0.2,0.7,0.2,1.3,0.2h0.1v1.4H0v-1.4h0.2c0.3,0,0.6,0,0.9-0.1c0.2-0.1,0.5-0.2,0.7-0.4c0.2-0.2,0.4-0.4,0.6-0.6
		c0.2-0.2,0.4-0.5,0.6-0.8L7.7,11L3.2,4.1C3.1,3.9,2.9,3.7,2.8,3.5C2.7,3.3,2.5,3.1,2.3,3C2.1,2.9,1.9,2.8,1.7,2.8
		C1.5,2.7,1.2,2.7,0.9,2.7H0.6V1.2h8.9v1.4H9.4c-0.3,0-0.6,0-0.8,0.1c-0.2,0-0.4,0.1-0.5,0.2C8,3,8,3.1,7.9,3.2
		c0,0.1-0.1,0.2-0.1,0.3c0,0.2,0.1,0.4,0.2,0.7C8.2,4.4,8.3,4.7,8.5,5l2.2,3.3l2.3-3.3c0.2-0.2,0.3-0.5,0.5-0.8
		C13.8,4,13.9,3.7,13.9,3.5z"/>
	<path class="st0" d="M38.4,2.7h-1.3c-0.1,0-0.2,0-0.3,0.1c-0.1,0.1-0.2,0.2-0.3,0.3c-0.1,0.1-0.2,0.3-0.3,0.6
		c-0.1,0.3-0.2,0.6-0.4,1l-5.5,15.9h-2.7L21.8,4c-0.1-0.3-0.2-0.5-0.3-0.6C21.3,3.2,21.2,3,21,2.9c-0.2-0.1-0.3-0.2-0.5-0.2
		c-0.2,0-0.3-0.1-0.4-0.1h-0.6V1.2h8.9v1.4h-1.2c-0.1,0-0.3,0-0.4,0c-0.1,0-0.2,0.1-0.3,0.2c-0.1,0.1-0.2,0.2-0.2,0.3
		c-0.1,0.1-0.1,0.3-0.1,0.4c0,0.2,0,0.4,0.1,0.6c0.1,0.2,0.1,0.4,0.2,0.6l2.8,8.3c0.1,0.2,0.1,0.4,0.2,0.7c0.1,0.3,0.1,0.6,0.2,0.9
		c0.1,0.3,0.1,0.6,0.2,0.9c0.1,0.3,0.1,0.6,0.1,0.8c0-0.1,0.1-0.4,0.1-0.6c0.1-0.3,0.1-0.5,0.2-0.8c0.1-0.3,0.2-0.6,0.3-0.9
		c0.1-0.3,0.2-0.6,0.3-0.8l2.8-8.2c0-0.1,0.1-0.2,0.1-0.3s0.1-0.2,0.1-0.4c0-0.1,0.1-0.2,0.1-0.4c0-0.1,0-0.2,0-0.3
		c0-0.3-0.1-0.5-0.3-0.7c-0.2-0.2-0.5-0.2-0.8-0.2h-1.4V1.2h7V2.7z"/>
	<path class="st0" d="M39.1,20.5v-1.4h1.1c0.2,0,0.4,0,0.6-0.1c0.2,0,0.3-0.1,0.4-0.2c0.1-0.1,0.2-0.3,0.3-0.5
		c0.1-0.2,0.1-0.5,0.1-0.9V4.4c0-0.4,0-0.7-0.1-0.9c-0.1-0.2-0.2-0.4-0.3-0.5c-0.1-0.1-0.3-0.2-0.4-0.2c-0.2,0-0.4-0.1-0.6-0.1h-1.1
		V1.2h9.3v1.4h-1.1c-0.2,0-0.4,0-0.5,0.1c-0.2,0-0.3,0.1-0.4,0.2c-0.1,0.1-0.2,0.3-0.3,0.5C46,3.7,45.9,4,45.9,4.3v14.6h5
		c0.6,0,1.1-0.2,1.5-0.6c0.4-0.4,0.6-1,0.8-1.7l0.4-2h1.5l-0.2,6H39.1z"/>
	<path class="st0" d="M77.2,14.9l2.6-13.7h3.9l-4.3,19.2h-4L72.4,7.6l-3.1,12.8h-4L61,1.3H65l2.6,13.6l3.2-13.6h3.3L77.2,14.9z"/>
	<path class="st0" d="M91.1,20.7c-2.1,0-3.8-0.6-5.1-1.9c-1.3-1.3-2-3-2-5.1v-0.4c0-1.4,0.3-2.7,0.8-3.8c0.6-1.1,1.3-2,2.4-2.6
		c1-0.6,2.2-0.9,3.5-0.9c2,0,3.5,0.6,4.6,1.8C96.4,9,97,10.8,97,13v1.6h-9.1c0.1,0.9,0.5,1.7,1.1,2.2c0.6,0.6,1.4,0.8,2.4,0.8
		c1.5,0,2.6-0.5,3.4-1.6l1.9,2.1c-0.6,0.8-1.3,1.4-2.3,1.9C93.4,20.5,92.3,20.7,91.1,20.7z M90.7,9c-0.8,0-1.4,0.3-1.8,0.8
		c-0.5,0.5-0.8,1.2-0.9,2.2h5.3v-0.3c0-0.8-0.2-1.5-0.7-2C92.1,9.3,91.5,9,90.7,9z"/>
	<path class="st0" d="M112,13.5c0,2.3-0.5,4.1-1.5,5.3c-1,1.3-2.3,1.9-4.1,1.9c-1.5,0-2.8-0.6-3.7-1.8l-0.2,1.5h-3.4V0.2h3.8v7.3
		c0.9-1,2-1.5,3.5-1.5c1.7,0,3.1,0.6,4.1,1.9c1,1.3,1.5,3.1,1.5,5.4V13.5z M108.2,13.2c0-1.4-0.2-2.5-0.7-3.2s-1.1-1-2-1
		c-1.2,0-2,0.5-2.5,1.5v5.6c0.5,1,1.3,1.5,2.5,1.5c1.2,0,2-0.6,2.4-1.8C108.1,15.3,108.2,14.4,108.2,13.2z"/>
	<path class="st0" d="M118.9,9.1h2.2c1,0,1.8-0.3,2.3-0.8c0.5-0.5,0.8-1.2,0.8-2.1c0-0.8-0.3-1.5-0.8-2c-0.5-0.5-1.2-0.7-2.1-0.7
		c-0.8,0-1.5,0.2-2,0.7c-0.5,0.4-0.8,1-0.8,1.7h-4.1c0-1.1,0.3-2.1,0.9-2.9c0.6-0.9,1.4-1.5,2.5-2s2.2-0.7,3.5-0.7
		c2.2,0,3.9,0.5,5.2,1.6c1.2,1.1,1.9,2.5,1.9,4.3c0,1-0.3,1.8-0.9,2.6c-0.6,0.8-1.3,1.4-2.3,1.8c1.2,0.4,2,1,2.6,1.9
		c0.6,0.8,0.9,1.8,0.9,3c0,1.8-0.7,3.3-2,4.4c-1.3,1.1-3.1,1.7-5.3,1.7c-2.1,0-3.8-0.5-5.1-1.6c-1.3-1.1-2-2.5-2-4.3h4.1
		c0,0.8,0.3,1.4,0.9,1.9c0.6,0.5,1.3,0.7,2.2,0.7c1,0,1.8-0.3,2.3-0.8s0.8-1.2,0.8-2.1c0-2.1-1.1-3.1-3.4-3.1h-2.2V9.1z"/>
	<path class="st0" d="M131.9,21.3V0.5h6.4c1.8,0,3.5,0.4,4.9,1.2c1.4,0.8,2.6,2,3.4,3.5c0.8,1.5,1.2,3.2,1.2,5.2v1
		c0,1.9-0.4,3.7-1.2,5.2c-0.8,1.5-1.9,2.7-3.4,3.5c-1.4,0.8-3.1,1.2-4.9,1.3H131.9z M136.2,4v13.9h2.1c1.7,0,3-0.5,3.8-1.6
		c0.9-1.1,1.3-2.7,1.4-4.7v-1.1c0-2.1-0.4-3.7-1.3-4.8C141.3,4.5,140,4,138.3,4H136.2z"/>
	<path class="st0" d="M171.2,7c0,0.8-0.1,1.6-0.4,2.3c-0.3,0.7-0.7,1.4-1.4,2c-0.6,0.6-1.5,1-2.5,1.4c-1,0.3-2.2,0.5-3.7,0.5h-0.9
		v4.3c0,0.4,0,0.6,0.1,0.9c0.1,0.2,0.2,0.4,0.3,0.5s0.3,0.2,0.5,0.2c0.2,0,0.4,0.1,0.5,0.1h1.6v1.4h-9.9v-1.4h1.1
		c0.2,0,0.4,0,0.6-0.1c0.2,0,0.3-0.1,0.4-0.2c0.1-0.1,0.2-0.3,0.3-0.5c0.1-0.2,0.1-0.5,0.1-0.9v-13c0-0.4,0-0.6-0.1-0.9
		c-0.1-0.2-0.2-0.4-0.3-0.5c-0.1-0.1-0.3-0.2-0.4-0.2c-0.2,0-0.3-0.1-0.5-0.1h-1.1V1.2h8.3c1.2,0,2.3,0.1,3.3,0.4
		c0.9,0.3,1.7,0.6,2.3,1.1c0.6,0.5,1.1,1.1,1.4,1.8C171.1,5.3,171.2,6.1,171.2,7z M162.3,11.6h0.7c0.7,0,1.2-0.1,1.7-0.3
		c0.5-0.2,0.8-0.4,1.1-0.8c0.3-0.4,0.5-0.8,0.6-1.4c0.1-0.6,0.2-1.3,0.2-2.1c0-0.7-0.1-1.3-0.2-1.9c-0.1-0.5-0.3-1-0.6-1.3
		c-0.3-0.3-0.6-0.6-1-0.8c-0.4-0.2-0.9-0.3-1.5-0.3h-1.1V11.6z"/>
	<path class="st0" d="M172.8,19.1c0.2,0,0.4,0,0.6-0.1c0.2,0,0.4-0.1,0.6-0.2c0.2-0.1,0.3-0.3,0.5-0.5c0.1-0.2,0.2-0.5,0.2-0.9V3.1
		c0-0.4-0.1-0.6-0.2-0.9c-0.1-0.2-0.3-0.4-0.5-0.5c-0.2-0.1-0.4-0.2-0.6-0.2c-0.2,0-0.4-0.1-0.6-0.1h-0.3V0h6.3v17.3
		c0,0.4,0.1,0.7,0.2,0.9c0.1,0.2,0.3,0.4,0.5,0.5c0.2,0.1,0.4,0.2,0.6,0.2c0.2,0,0.4,0.1,0.6,0.1h0.3v1.4h-8.6v-1.4H172.8z"/>
	<path class="st0" d="M189.4,7.3c-0.3,0-0.6,0.1-0.9,0.2c-0.2,0.1-0.4,0.3-0.6,0.6c-0.1,0.3-0.2,0.6-0.3,0.9
		c-0.1,0.4-0.1,0.7-0.1,1.2c-1.2,0-2.1-0.1-2.7-0.4c-0.6-0.3-0.9-0.7-0.9-1.4c0-0.5,0.1-0.9,0.4-1.3c0.3-0.4,0.7-0.6,1.2-0.9
		c0.5-0.2,1.1-0.4,1.8-0.5c0.7-0.1,1.4-0.2,2.2-0.2c0.9,0,1.8,0.1,2.5,0.2c0.7,0.2,1.3,0.4,1.8,0.8c0.5,0.4,0.8,0.8,1.1,1.4
		c0.2,0.6,0.4,1.3,0.4,2.1v6.9c0,0.4,0,0.7,0.1,0.9c0.1,0.2,0.1,0.4,0.3,0.6c0.1,0.1,0.3,0.2,0.5,0.3c0.2,0.1,0.5,0.1,0.8,0.1h0.1
		v1.4h-5l-0.6-1.9H191c-0.3,0.4-0.6,0.7-0.8,0.9c-0.3,0.3-0.5,0.5-0.8,0.7c-0.3,0.2-0.6,0.3-1,0.4c-0.4,0.1-0.8,0.1-1.3,0.1
		c-0.6,0-1.2-0.1-1.7-0.3c-0.5-0.2-1-0.4-1.3-0.8c-0.4-0.4-0.7-0.8-0.9-1.4c-0.2-0.5-0.3-1.2-0.3-1.9c0-1.5,0.5-2.6,1.5-3.3
		c1-0.7,2.5-1.1,4.5-1.1l2.2-0.1v-1.5c0-0.4,0-0.9-0.1-1.2c0-0.4-0.1-0.7-0.2-1c-0.1-0.3-0.3-0.5-0.5-0.6
		C190,7.4,189.7,7.3,189.4,7.3z M187,16.5c0,0.8,0.1,1.4,0.4,1.7c0.2,0.4,0.6,0.6,1.2,0.6c0.4,0,0.7-0.1,1-0.2
		c0.3-0.2,0.6-0.4,0.8-0.7c0.2-0.3,0.4-0.7,0.5-1.1c0.1-0.4,0.2-0.9,0.2-1.4v-2l-1.2,0.1c-0.5,0-1,0.1-1.4,0.3
		c-0.4,0.1-0.7,0.3-0.9,0.6c-0.2,0.3-0.4,0.6-0.5,0.9C187,15.6,187,16,187,16.5z"/>
	<path class="st0" d="M212.5,6v1.4c-0.3,0-0.5,0-0.7,0.1c-0.2,0.1-0.4,0.2-0.6,0.3c-0.2,0.2-0.3,0.4-0.5,0.6
		c-0.1,0.3-0.3,0.6-0.4,0.9c-0.3,0.9-0.6,1.8-1,2.7c-0.3,0.9-0.7,1.9-1,2.8c-0.3,0.9-0.7,1.9-1,2.8c-0.3,0.9-0.7,1.8-1,2.7
		c-0.3,0.9-0.6,1.6-0.9,2.3c-0.3,0.7-0.6,1.2-0.9,1.7c-0.3,0.5-0.7,0.9-1,1.2c-0.4,0.3-0.8,0.6-1.3,0.8c-0.5,0.2-1.1,0.3-1.7,0.4
		c-0.7,0.1-1.4,0.1-2.3,0.1h-0.5v-1.6c0.9,0,1.7-0.1,2.4-0.3c0.7-0.2,1.2-0.6,1.7-1c0.5-0.4,0.8-0.9,1.1-1.5c0.3-0.6,0.6-1.2,0.8-2
		l-4.9-11.9c-0.1-0.3-0.2-0.5-0.4-0.6c-0.1-0.1-0.3-0.3-0.4-0.3c-0.1-0.1-0.3-0.1-0.5-0.2c-0.2,0-0.4,0-0.6,0V6h7.7v1.4
		c-0.5,0-0.9,0.1-1.2,0.2c-0.3,0.1-0.5,0.4-0.5,0.8c0,0.1,0,0.3,0.1,0.5c0.1,0.2,0.1,0.4,0.2,0.5c0.2,0.4,0.3,0.8,0.5,1.2
		c0.2,0.4,0.3,0.9,0.5,1.3c0.2,0.4,0.3,0.9,0.5,1.3c0.1,0.4,0.3,0.8,0.4,1.1c0.1,0.3,0.2,0.7,0.3,0.9c0.1,0.3,0.2,0.5,0.2,0.8
		c0.1,0.2,0.1,0.4,0.1,0.6c0,0.2,0.1,0.4,0.1,0.6c0-0.2,0.1-0.4,0.1-0.6c0.1-0.2,0.1-0.4,0.2-0.6s0.1-0.4,0.2-0.6
		c0.1-0.2,0.1-0.3,0.1-0.3l1.8-5.3c0-0.1,0.1-0.2,0.1-0.3s0.1-0.2,0.1-0.4c0-0.1,0-0.2,0.1-0.4c0-0.1,0-0.2,0-0.3
		c0-0.4-0.2-0.7-0.5-0.9c-0.3-0.2-0.8-0.2-1.5-0.2V6H212.5z"/>
	<path class="st0" d="M219.9,20.8c-1.1,0-2.2-0.2-3-0.5c-0.9-0.3-1.6-0.8-2.2-1.5c-0.6-0.6-1-1.4-1.3-2.3c-0.3-0.9-0.4-2-0.4-3.1
		c0-1.3,0.1-2.4,0.4-3.3c0.3-1,0.7-1.8,1.3-2.4s1.3-1.1,2.1-1.4c0.8-0.3,1.8-0.5,2.8-0.5c1,0,1.9,0.1,2.6,0.4c0.8,0.3,1.4,0.7,2,1.2
		c0.5,0.5,1,1.2,1.3,2c0.3,0.8,0.4,1.7,0.4,2.8v1.4H217c0,0.9,0.1,1.7,0.3,2.3c0.2,0.7,0.4,1.2,0.7,1.6c0.3,0.4,0.7,0.7,1.1,0.9
		c0.4,0.2,0.9,0.3,1.5,0.3c0.5,0,0.9-0.1,1.3-0.2c0.4-0.1,0.8-0.3,1.1-0.5c0.3-0.2,0.6-0.4,0.8-0.7c0.2-0.3,0.4-0.6,0.6-0.9
		c0.5,0.3,0.7,0.7,0.7,1.3c0,0.4-0.1,0.8-0.3,1.1s-0.5,0.7-1,0.9c-0.4,0.3-1,0.5-1.7,0.6C221.6,20.7,220.8,20.8,219.9,20.8z
		 M219.6,7.5c-0.8,0-1.4,0.4-1.8,1.1c-0.4,0.7-0.7,1.8-0.7,3.3h4.7c0-0.7,0-1.3-0.1-1.8c-0.1-0.5-0.2-1-0.4-1.4
		c-0.2-0.4-0.4-0.7-0.7-0.9C220.3,7.6,220,7.5,219.6,7.5z"/>
	<path class="st0" d="M236.6,20.5h-9v-1.4h0.1c0.3,0,0.6,0,0.8-0.1c0.3,0,0.5-0.1,0.7-0.3c0.2-0.1,0.3-0.3,0.4-0.6
		c0.1-0.3,0.2-0.6,0.2-1V9.3c0-0.4,0-0.7-0.1-1c-0.1-0.2-0.2-0.4-0.4-0.6c-0.2-0.1-0.4-0.2-0.6-0.3c-0.2,0-0.5-0.1-0.8-0.1h-0.1V6
		h5.5l0.5,2.1h0.1c0.2-0.4,0.4-0.8,0.6-1.1c0.2-0.3,0.5-0.6,0.8-0.8c0.3-0.2,0.6-0.4,1-0.5c0.4-0.1,0.9-0.2,1.4-0.2
		c1.1,0,1.8,0.2,2.3,0.6c0.5,0.4,0.8,0.9,0.8,1.6c0,0.8-0.3,1.5-0.9,1.9c-0.6,0.5-1.4,0.7-2.5,0.7c0-0.4,0-0.7-0.1-1
		c0-0.3-0.1-0.5-0.2-0.7c-0.1-0.2-0.2-0.3-0.4-0.4c-0.2-0.1-0.4-0.1-0.6-0.1c-0.3,0-0.6,0.1-0.8,0.2c-0.2,0.2-0.4,0.4-0.6,0.6
		c-0.2,0.3-0.3,0.5-0.4,0.9c-0.1,0.3-0.2,0.6-0.2,1c-0.1,0.3-0.1,0.6-0.1,0.9c0,0.3,0,0.5,0,0.8v4.7c0,0.4,0,0.7,0.1,1
		c0.1,0.2,0.2,0.4,0.4,0.5c0.2,0.1,0.4,0.2,0.6,0.2c0.2,0,0.5,0.1,0.7,0.1h0.9V20.5z"/>
</g>
</svg>
