<?xml version="1.0" encoding="utf-8"?>
<!-- Generator: Adobe Illustrator 22.1.0, SVG Export Plug-In . SVG Version: 6.00 Build 0)  -->
<!DOCTYPE svg PUBLIC "-//W3C//DTD SVG 1.1//EN" "http://www.w3.org/Graphics/SVG/1.1/DTD/svg11.dtd">
<svg version="1.1"
	 id="レイヤー_1" xmlns:cc="http://creativecommons.org/ns#" xmlns:dc="http://purl.org/dc/elements/1.1/" xmlns:rdf="http://www.w3.org/1999/02/22-rdf-syntax-ns#" xmlns:svg="http://www.w3.org/2000/svg"
	 xmlns="http://www.w3.org/2000/svg" xmlns:xlink="http://www.w3.org/1999/xlink" x="0px" y="0px" viewBox="0 0 28 28"
	 style="enable-background:new 0 0 28 28;" xml:space="preserve">
<style type="text/css">
	.st0{fill:none;stroke:#303030;stroke-width:2;stroke-miterlimit:10;}
	.st1{fill:none;stroke:#303030;stroke-miterlimit:10;}
</style>
<g>
	<ellipse class="st0" cx="14" cy="4.5" rx="11" ry="3.5"/>
	<path class="st0" d="M25,4.5v19c0,1.9-4.9,3.5-11,3.5S3,25.4,3,23.5v-19"/>
	<g>
		<path class="st1" d="M21.3,1.8L2.5,20.6"/>
		<path class="st1" d="M3.1,24.6L24.6,3.2"/>
		<path class="st1" d="M17.2,1.1L2.5,15.9"/>
		<path class="st1" d="M12.7,1L2.5,11.2"/>
		<path class="st1" d="M7.3,1.7L2.5,6.5"/>
		<path class="st1" d="M6.4,26.1L25.5,7"/>
		<path class="st1" d="M20.1,26.5l5.4-5.4"/>
		<path class="st1" d="M25.5,16.4L14.9,27"/>
		<path class="st1" d="M10.4,26.8l15.1-15.1"/>
	</g>
	<line class="st0" x1="8" y1="8" x2="8" y2="27"/>
</g>
</svg>
