<?xml version="1.0" encoding="UTF-8" standalone="no"?>
<svg
   xmlns:dc="http://purl.org/dc/elements/1.1/"
   xmlns:cc="http://creativecommons.org/ns#"
   xmlns:rdf="http://www.w3.org/1999/02/22-rdf-syntax-ns#"
   xmlns:svg="http://www.w3.org/2000/svg"
   xmlns="http://www.w3.org/2000/svg"
   xml:space="preserve"
   style="enable-background:new 0 0 28 28;"
   viewBox="0 0 28 28"
   y="0px"
   x="0px"
   id="レイヤー_1"
   version="1.1"><metadata
     id="metadata5344"><rdf:RDF><cc:Work
         rdf:about=""><dc:format>image/svg+xml</dc:format><dc:type
           rdf:resource="http://purl.org/dc/dcmitype/StillImage" /><dc:title></dc:title></cc:Work></rdf:RDF></metadata><defs
     id="defs5342" /><style
     id="style5322"
     type="text/css">
	.st0{fill:#303030;}
</style><g
     transform="matrix(0.82432399,0,0,0.80139307,4.6314477,9.6189306)"
     id="g5336"><path
       id="rect6577-5"
       transform="matrix(1.2131152,0,0,1.2478271,-5.6184798,-12.002762)"
       d="M 19.013672 2.2792969 L 19.013672 5.3007812 L 14.226562 2.5371094 L 0.6015625 10.404297 L 2.1914062 13.160156 L 5.2929688 11.369141 L 5.2929688 25.259766 L 7.4140625 25.259766 L 22.09375 25.259766 L 23.6875 25.259766 L 23.6875 11.673828 L 26.261719 13.160156 L 27.851562 10.404297 L 24.318359 8.3632812 L 24.318359 2.2792969 L 19.013672 2.2792969 z M 14.226562 6.2109375 L 21.566406 10.449219 L 21.566406 23.138672 L 16.681641 23.138672 C 16.68153 21.259329 16.683175 19.375924 16.677734 17.501953 C 16.661635 16.209455 15.519649 15.10159 14.226562 15.125 C 12.925165 15.090693 11.763026 16.253641 11.771484 17.542969 L 11.771484 23.138672 L 7.4140625 23.138672 L 7.4140625 10.144531 L 14.226562 6.2109375 z "
       style="fill:#303030;fill-opacity:1;stroke:none;stroke-width:1.09399998;stroke-linecap:round;stroke-miterlimit:4;stroke-dasharray:none;stroke-dashoffset:10.93999958;stroke-opacity:1" /></g></svg>