<?xml version="1.0" encoding="UTF-8" standalone="no"?>
<svg
   xmlns:dc="http://purl.org/dc/elements/1.1/"
   xmlns:cc="http://creativecommons.org/ns#"
   xmlns:rdf="http://www.w3.org/1999/02/22-rdf-syntax-ns#"
   xmlns:svg="http://www.w3.org/2000/svg"
   xmlns="http://www.w3.org/2000/svg"
   id="svg4605"
   version="1.1"
   viewBox="0 0 10.583333 10.583334">
  <defs
     id="defs4599" />
  <metadata
     id="metadata4602">
    <rdf:RDF>
      <cc:Work
         rdf:about="">
        <dc:format>image/svg+xml</dc:format>
        <dc:type
           rdf:resource="http://purl.org/dc/dcmitype/StillImage" />
        <dc:title></dc:title>
      </cc:Work>
    </rdf:RDF>
  </metadata>
  <g
     transform="translate(0,-286.41665)"
     id="layer1">
    <path
       d="m 8.515465,290.28447 c 10e-6,-0.47299 -1.3611984,-0.85643 -3.0403375,-0.85643 -1.679139,0 -3.0403473,0.38344 -3.0403373,0.85643 v 3.52154 c -8.3e-6,0.30598 0.5794778,0.58871 1.5201686,0.74169 0.9406837,0.15298 2.0996537,0.15298 3.0403375,0 0.9406908,-0.15298 1.5201771,-0.43571 1.5201687,-0.74169 v -3.52154 c -1.36e-5,0.47298 -1.361215,0.85641 -3.0403375,0.85641 -1.6791223,0 -3.0403237,-0.38343 -3.0403373,-0.85641"
       style="fill:none;fill-opacity:1;stroke:#000000;stroke-width:0.4;stroke-linecap:round;stroke-linejoin:round;stroke-miterlimit:4;stroke-dasharray:none;stroke-opacity:1"
       id="ellipse5192" />
    <path
       id="rect5204"
       d="m 6.391329,294.78041 -2.6283461,1.52474 v -7.36846 l 2.8382047,-1.83925 v 2.14948"
       style="fill:none;fill-opacity:1;stroke:#000000;stroke-width:0.2;stroke-linecap:round;stroke-linejoin:round;stroke-miterlimit:4;stroke-dasharray:none;stroke-opacity:1" />
    <path
       id="path5211"
       d="m 6.4323157,289.43062 -2.1498625,1.70194"
       style="fill:none;stroke:#000000;stroke-width:0.2;stroke-linecap:butt;stroke-linejoin:miter;stroke-miterlimit:4;stroke-dasharray:0.2,0.2;stroke-dashoffset:0;stroke-opacity:1" />
    <path
       id="path5213"
       d="m 4.507233,290.95208 0.019787,3.73656"
       style="fill:none;stroke:#000000;stroke-width:0.2;stroke-linecap:butt;stroke-linejoin:miter;stroke-miterlimit:4;stroke-dasharray:0.2,0.2;stroke-dashoffset:0;stroke-opacity:1" />
    <path
       id="path5516"
       d="M 0.88460718,288.04851 H 9.7265135"
       style="fill:none;stroke:#000000;stroke-width:0.4;stroke-linecap:butt;stroke-linejoin:miter;stroke-miterlimit:4;stroke-dasharray:none;stroke-opacity:1" />
    <path
       id="path5520"
       d="m 2.1101077,287.04854 -1.22550052,0.99997 1.16498202,1.05328"
       style="fill:none;stroke:#000000;stroke-width:0.4;stroke-linecap:butt;stroke-linejoin:miter;stroke-miterlimit:4;stroke-dasharray:none;stroke-opacity:1" />
    <path
       id="path5520-6"
       d="m 8.4802356,287.05413 1.2462779,0.99438 -1.184733,1.04738"
       style="fill:none;stroke:#000000;stroke-width:0.4;stroke-linecap:butt;stroke-linejoin:miter;stroke-miterlimit:4;stroke-dasharray:none;stroke-opacity:1" />
  </g>
</svg>
