<?xml version="1.0" encoding="UTF-8" standalone="no"?>
<svg
   xmlns:dc="http://purl.org/dc/elements/1.1/"
   xmlns:cc="http://creativecommons.org/ns#"
   xmlns:rdf="http://www.w3.org/1999/02/22-rdf-syntax-ns#"
   xmlns:svg="http://www.w3.org/2000/svg"
   xmlns="http://www.w3.org/2000/svg"
   id="svg4605"
   version="1.1"
   viewBox="0 0 10.583333 10.583334">
  <defs
     id="defs4599" />
  <metadata
     id="metadata4602">
    <rdf:RDF>
      <cc:Work
         rdf:about="">
        <dc:format>image/svg+xml</dc:format>
        <dc:type
           rdf:resource="http://purl.org/dc/dcmitype/StillImage" />
        <dc:title></dc:title>
      </cc:Work>
    </rdf:RDF>
  </metadata>
  <g
     transform="translate(0,-286.41665)"
     id="layer1">
    <g
       style="stroke-width:0.48430714;stroke-miterlimit:4;stroke-dasharray:none"
       transform="matrix(0.61944164,0,0,0.61944164,-0.0377849,108.9834)"
       id="g23273">
      <path
         style="fill:none;fill-opacity:1;stroke:#000000;stroke-width:0.48430714;stroke-linecap:round;stroke-linejoin:round;stroke-miterlimit:4;stroke-dasharray:none;stroke-dashoffset:0;stroke-opacity:1"
         id="path6158"
         d="m 6.4696513,290.42132 a 4.717205,1.1434286 0 0 1 -4.4327228,-0.75235 4.717205,1.1434286 0 0 1 1.4005618,-1.26699 4.717205,1.1434286 0 0 1 5.3907636,-0.11433" />
      <path
         d="M 6.4696513,295.28299 A 4.717205,1.1434286 0 0 1 3.1340835,294.94808 4.717205,1.1434286 0 0 1 1.7524462,294.13956"
         id="path6162"
         style="fill:none;fill-opacity:1;stroke:#000000;stroke-width:0.48430714;stroke-linecap:round;stroke-linejoin:round;stroke-miterlimit:4;stroke-dasharray:none;stroke-dashoffset:0;stroke-opacity:1" />
      <path
         style="fill:none;stroke:#000000;stroke-width:0.48430714;stroke-linecap:butt;stroke-linejoin:miter;stroke-miterlimit:4;stroke-dasharray:none;stroke-opacity:1"
         d="m 1.7833802,289.23558 -0.03388,4.96332"
         id="path6167" />
      <path
         id="path6178"
         d="m 6.4357717,295.38463 0.03388,-4.96332 2.3586027,-2.13366"
         style="fill:none;stroke:#000000;stroke-width:0.48430714;stroke-linecap:butt;stroke-linejoin:miter;stroke-miterlimit:4;stroke-dasharray:none;stroke-opacity:1" />
      <path
         style="fill:none;stroke:#000000;stroke-width:0.48430714;stroke-linecap:butt;stroke-linejoin:miter;stroke-miterlimit:4;stroke-dasharray:none;stroke-opacity:1"
         d="m 8.8282542,288.28765 -0.03388,4.96332"
         id="path6180" />
      <path
         style="fill:none;stroke:#000000;stroke-width:0.48430714;stroke-linecap:butt;stroke-linejoin:miter;stroke-miterlimit:4;stroke-dasharray:none;stroke-opacity:1"
         d="M 6.4696515,295.28299 Z"
         id="path6184" />
      <path
         style="fill:none;stroke:#000000;stroke-width:0.48430714;stroke-linecap:butt;stroke-linejoin:miter;stroke-miterlimit:4;stroke-dasharray:none;stroke-opacity:1"
         d="M 6.4743965,295.27738 8.8573881,293.138"
         id="path6186" />
      <path
         style="fill:none;stroke:#000000;stroke-width:0.48430714;stroke-linecap:butt;stroke-linejoin:miter;stroke-miterlimit:4;stroke-dasharray:none;stroke-opacity:1"
         d="m 7.8251774,289.13737 0.936026,0.8237"
         id="path7749" />
      <path
         style="fill:none;stroke:#000000;stroke-width:0.48430714;stroke-linecap:butt;stroke-linejoin:miter;stroke-miterlimit:4;stroke-dasharray:none;stroke-opacity:1"
         d="m 7.1466894,289.89283 1.7189058,1.47501"
         id="path7749-3" />
      <path
         style="fill:none;stroke:#000000;stroke-width:0.48430714;stroke-linecap:butt;stroke-linejoin:miter;stroke-miterlimit:4;stroke-dasharray:none;stroke-opacity:1"
         d="m 6.5298686,290.68797 2.3260788,2.04695"
         id="path7749-3-3" />
      <path
         style="fill:none;stroke:#000000;stroke-width:0.48430714;stroke-linecap:butt;stroke-linejoin:miter;stroke-miterlimit:4;stroke-dasharray:none;stroke-opacity:1"
         d="m 6.5242994,292.03766 1.7156508,1.50978"
         id="path7749-3-5" />
      <path
         style="fill:none;stroke:#000000;stroke-width:0.48430714;stroke-linecap:butt;stroke-linejoin:miter;stroke-miterlimit:4;stroke-dasharray:none;stroke-opacity:1"
         d="m 6.4643102,293.42586 1.0177183,0.8956"
         id="path7749-3-5-3" />
    </g>
    <path
       id="path16091"
       d="m 6.5023602,291.14968 a 2.8220517,2.8404966 80.721648 0 0 -0.3056875,0.0982 l 0.023835,0.85307 a 2.0381485,2.0381485 0 0 0 -0.3819459,0.27591 L 5.028015,292.0881 a 2.8220517,2.8404966 80.721648 0 0 -0.186602,0.25423 l 0.5240772,0.6836 a 2.0381485,2.0381485 0 0 0 -0.1433268,0.44751 l -0.8388351,0.24526 a 2.8220517,2.8404966 80.721648 0 0 -7.569e-4,0.30869 l 0.8360652,0.24802 a 2.0381485,2.0381485 0 0 0 0.1451905,0.45011 l -0.5298988,0.68615 a 2.8220517,2.8404966 80.721648 0 0 0.1859254,0.25187 l 0.8154876,-0.28971 a 2.0381485,2.0381485 0 0 0 0.381596,0.27694 l -0.02506,0.85813 a 2.8220517,2.8404966 80.721648 0 0 0.3024495,0.0968 l 0.4841696,-0.70646 a 2.0381485,2.0381485 0 0 0 0.4709864,5.7e-4 l 0.4822465,0.70505 a 2.8220517,2.8404966 80.721648 0 0 0.3054435,-0.0997 l -0.023605,-0.85165 a 2.0381485,2.0381485 0 0 0 0.3819461,-0.2759 l 0.8088901,0.28757 a 2.8220517,2.8404966 80.721648 0 0 0.1880242,-0.25449 L 9.068593,294.72857 a 2.0381485,2.0381485 0 0 0 0.1447504,-0.44775 l 0.8371776,-0.24644 a 2.8220517,2.8404966 80.721648 0 0 7.57e-4,-0.30869 l -0.8358324,-0.24661 a 2.0381485,2.0381485 0 0 0 -0.1454215,-0.45151 l 0.528473,-0.68593 A 2.8220517,2.8404966 80.721648 0 0 9.4139967,292.0896 l -0.8154897,0.28969 a 2.0381485,2.0381485 0 0 0 -0.381595,-0.27694 l 0.023867,-0.85647 a 2.8220517,2.8404966 80.721648 0 0 -0.3010198,-0.0971 l -0.4841697,0.70646 a 2.0381485,2.0381485 0 0 0 -0.4709856,-5.6e-4 z m 0.506422,1.45279 a 1.2911347,1.2911347 0 0 1 1.4830902,1.06656 1.2911347,1.2911347 0 0 1 -1.0665575,1.48309 1.2911347,1.2911347 0 0 1 -1.4830917,-1.06656 1.2911347,1.2911347 0 0 1 1.066559,-1.48309 z"
       style="fill:#000000;fill-opacity:1;stroke:none;stroke-width:0.29558125;stroke-linejoin:round;stroke-miterlimit:4;stroke-dasharray:none;stroke-dashoffset:0;stroke-opacity:1" />
  </g>
</svg>
